# xmcd CD database file
#
# Track frame offsets:
#	150
#	9217
#	34520
#	62625
#	77907
#	99175
#	124058
#	153898
#	174501
#	196508
#	211737
#	236502
#
# Disc length: 3341 seconds
#
# Revision: 1
# Processed by: cddbd v1.5.2PL0 Copyright (c) Steve Scherf et al.
# Submitted via: CDex 1.77
#
DISCID=7f0d0b0c
DTITLE=Theo Croker - Afro Physicist
DYEAR=2014
DGENRE=Jazz
TTITLE0=Alapa (For Doc)
TTITLE1=Realize
TTITLE2=It's Not You It's Me (But You Didn't Help)
TTITLE3=Light Skinned Beauty (album version)
TTITLE4=Wanting Your Love
TTITLE5=Save Your Love for Me (feat. Dee Dee Bridgewater)
TTITLE6=Visions (feat. Stefon Harris)
TTITLE7=The Fundamentals
TTITLE8=Roy Allan (feat. Roy Hargrove)
TTITLE9=Moody's Mood for Love (feat. Dee Dee Bridgewater) Moody's Mood for Love (feat. Dee Dee Bridgewater)
TTITLE10=I Can't Help It (feat. Dee Dee Bridgewater)
TTITLE11=Bo Masekela
EXTD=YEAR: 2014
EXTT0=
EXTT1=
EXTT2=
EXTT3=
EXTT4=
EXTT5=
EXTT6=
EXTT7=
EXTT8=
EXTT9=
EXTT10=
EXTT11=
PLAYORDER=
